<svg width="30" height="30" viewBox="0 0 30 30" fill="none" xmlns="http://www.w3.org/2000/svg">
<g clip-path="url(#clip0_1_83)">
<path d="M29.941 5.71215C28.8181 6.20575 27.6289 6.53173 26.4113 6.67965C27.6948 5.90931 28.6556 4.69998 29.116 3.27559C27.902 3.97966 26.5806 4.47974 25.2047 4.7559C24.2794 3.76727 23.0537 3.11165 21.7178 2.89075C20.3819 2.66985 19.0104 2.89602 17.8161 3.53419C16.6218 4.17235 15.6715 5.18682 15.1127 6.4202C14.5539 7.65358 14.4177 9.03692 14.7253 10.3556C9.61314 10.1165 5.08126 7.66028 2.05033 3.94965C1.49858 4.88798 1.21002 5.95771 1.21501 7.04622C1.21426 8.05812 1.4634 9.05455 1.9403 9.94702C2.4172 10.8395 3.10711 11.6004 3.94876 12.1622C2.97341 12.1327 2.0193 11.87 1.16626 11.3962V11.4703C1.16597 12.8906 1.65677 14.2674 2.5555 15.3672C3.45423 16.467 4.7056 17.2223 6.09751 17.505C5.57026 17.6458 5.02701 17.718 4.48126 17.7197C4.08658 17.7197 3.7097 17.6812 3.33376 17.6118C3.72988 18.8341 4.49721 19.9024 5.52893 20.6681C6.56065 21.4339 7.80543 21.8589 9.09001 21.884C6.91352 23.5885 4.22794 24.5132 1.46345 24.51C0.9738 24.5119 0.484477 24.4844 -0.00186157 24.4275C2.81822 26.2345 6.09786 27.1937 9.4472 27.1912C20.76 27.1912 26.9419 17.8209 26.9419 9.7059C26.9419 9.44715 26.9419 9.18372 26.9222 8.91934C28.1315 8.05267 29.1736 6.97398 29.9981 5.73559L29.941 5.71215Z" fill="#222222"/>
</g>
<defs>
<clipPath id="clip0_1_83">
<rect width="30" height="30" fill="white"/>
</clipPath>
</defs>
</svg>
