<svg width="28" height="28" viewBox="0 0 28 28" fill="none" xmlns="http://www.w3.org/2000/svg">
<path d="M27.0726 13.7025C26.0435 11.0404 24.2569 8.73829 21.9336 7.08058C19.6103 5.42286 16.8522 4.48225 14.0001 4.375C11.1481 4.48225 8.38996 5.42286 6.06667 7.08058C3.74338 8.73829 1.95676 11.0404 0.927616 13.7025C0.858112 13.8947 0.858112 14.1053 0.927616 14.2975C1.95676 16.9596 3.74338 19.2617 6.06667 20.9194C8.38996 22.5771 11.1481 23.5177 14.0001 23.625C16.8522 23.5177 19.6103 22.5771 21.9336 20.9194C24.2569 19.2617 26.0435 16.9596 27.0726 14.2975C27.1421 14.1053 27.1421 13.8947 27.0726 13.7025V13.7025ZM14.0001 21.875C9.36262 21.875 4.46262 18.4363 2.68637 14C4.46262 9.56375 9.36262 6.125 14.0001 6.125C18.6376 6.125 23.5376 9.56375 25.3139 14C23.5376 18.4363 18.6376 21.875 14.0001 21.875Z" fill="black"/>
<path d="M14 8.75C12.9617 8.75 11.9466 9.05791 11.0833 9.63478C10.2199 10.2117 9.54699 11.0316 9.14963 11.9909C8.75227 12.9502 8.64831 14.0058 8.85088 15.0242C9.05345 16.0426 9.55347 16.9781 10.2877 17.7123C11.0219 18.4465 11.9574 18.9466 12.9758 19.1491C13.9942 19.3517 15.0498 19.2477 16.0091 18.8504C16.9684 18.453 17.7883 17.7801 18.3652 16.9167C18.9421 16.0534 19.25 15.0384 19.25 14C19.25 12.6076 18.6969 11.2723 17.7123 10.2877C16.7277 9.30312 15.3924 8.75 14 8.75ZM14 17.5C13.3078 17.5 12.6311 17.2947 12.0555 16.9101C11.4799 16.5256 11.0313 15.9789 10.7664 15.3394C10.5015 14.6999 10.4322 13.9961 10.5673 13.3172C10.7023 12.6383 11.0356 12.0146 11.5251 11.5251C12.0146 11.0356 12.6383 10.7023 13.3172 10.5673C13.9961 10.4322 14.6999 10.5015 15.3394 10.7664C15.9789 11.0313 16.5256 11.4799 16.9101 12.0555C17.2947 12.6311 17.5 13.3078 17.5 14C17.5 14.9283 17.1313 15.8185 16.4749 16.4749C15.8185 17.1313 14.9283 17.5 14 17.5Z" fill="black"/>
</svg>
